<svg width="2640" height="495" xmlns="http://www.w3.org/2000/svg" xmlns:xlink="http://www.w3.org/1999/xlink" xml:space="preserve" overflow="hidden"><defs><clipPath id="clip0"><rect x="0" y="495" width="2640" height="495"/></clipPath><linearGradient x1="298" y1="742.5" x2="2343" y2="742.5" gradientUnits="userSpaceOnUse" spreadMethod="reflect" id="fill1"><stop offset="0" stop-color="#FF00FF"/><stop offset="0.5" stop-color="#7F7FFF"/><stop offset="1" stop-color="#00FFFF"/></linearGradient><linearGradient x1="298" y1="742.5" x2="2343" y2="742.5" gradientUnits="userSpaceOnUse" spreadMethod="reflect" id="fill2"><stop offset="0" stop-color="#FF00FF"/><stop offset="0.5" stop-color="#7F7FFF"/><stop offset="1" stop-color="#00FFFF"/></linearGradient><linearGradient x1="298" y1="742.5" x2="2343" y2="742.5" gradientUnits="userSpaceOnUse" spreadMethod="reflect" id="fill3"><stop offset="0" stop-color="#FF00FF"/><stop offset="0.5" stop-color="#7F7FFF"/><stop offset="1" stop-color="#00FFFF"/></linearGradient><linearGradient x1="298" y1="742.5" x2="2343" y2="742.5" gradientUnits="userSpaceOnUse" spreadMethod="reflect" id="fill4"><stop offset="0" stop-color="#FF00FF"/><stop offset="0.5" stop-color="#7F7FFF"/><stop offset="1" stop-color="#00FFFF"/></linearGradient><linearGradient x1="298" y1="742.5" x2="2343" y2="742.5" gradientUnits="userSpaceOnUse" spreadMethod="reflect" id="fill5"><stop offset="0" stop-color="#FF00FF"/><stop offset="0.5" stop-color="#7F7FFF"/><stop offset="1" stop-color="#00FFFF"/></linearGradient><linearGradient x1="298" y1="742.5" x2="2343" y2="742.5" gradientUnits="userSpaceOnUse" spreadMethod="reflect" id="fill6"><stop offset="0" stop-color="#FF00FF"/><stop offset="0.5" stop-color="#7F7FFF"/><stop offset="1" stop-color="#00FFFF"/></linearGradient><linearGradient x1="298" y1="742.5" x2="2343" y2="742.5" gradientUnits="userSpaceOnUse" spreadMethod="reflect" id="fill7"><stop offset="0" stop-color="#FF00FF"/><stop offset="0.5" stop-color="#7F7FFF"/><stop offset="1" stop-color="#00FFFF"/></linearGradient><linearGradient x1="298" y1="742.5" x2="2343" y2="742.5" gradientUnits="userSpaceOnUse" spreadMethod="reflect" id="fill8"><stop offset="0" stop-color="#FF00FF"/><stop offset="0.5" stop-color="#7F7FFF"/><stop offset="1" stop-color="#00FFFF"/></linearGradient><linearGradient x1="298" y1="742.5" x2="2343" y2="742.5" gradientUnits="userSpaceOnUse" spreadMethod="reflect" id="fill9"><stop offset="0" stop-color="#FF00FF"/><stop offset="0.5" stop-color="#7F7FFF"/><stop offset="1" stop-color="#00FFFF"/></linearGradient><linearGradient x1="298" y1="742.5" x2="2343" y2="742.5" gradientUnits="userSpaceOnUse" spreadMethod="reflect" id="fill10"><stop offset="0" stop-color="#FF00FF"/><stop offset="0.5" stop-color="#7F7FFF"/><stop offset="1" stop-color="#00FFFF"/></linearGradient><linearGradient x1="298" y1="742.5" x2="2343" y2="742.5" gradientUnits="userSpaceOnUse" spreadMethod="reflect" id="fill11"><stop offset="0" stop-color="#FF00FF"/><stop offset="0.5" stop-color="#7F7FFF"/><stop offset="1" stop-color="#00FFFF"/></linearGradient><linearGradient x1="298" y1="742.5" x2="2343" y2="742.5" gradientUnits="userSpaceOnUse" spreadMethod="reflect" id="fill12"><stop offset="0" stop-color="#FF00FF"/><stop offset="0.5" stop-color="#7F7FFF"/><stop offset="1" stop-color="#00FFFF"/></linearGradient><linearGradient x1="298" y1="742.5" x2="2343" y2="742.5" gradientUnits="userSpaceOnUse" spreadMethod="reflect" id="fill13"><stop offset="0" stop-color="#FF00FF"/><stop offset="0.5" stop-color="#7F7FFF"/><stop offset="1" stop-color="#00FFFF"/></linearGradient><linearGradient x1="298" y1="742.5" x2="2343" y2="742.5" gradientUnits="userSpaceOnUse" spreadMethod="reflect" id="fill14"><stop offset="0" stop-color="#FF00FF"/><stop offset="0.5" stop-color="#7F7FFF"/><stop offset="1" stop-color="#00FFFF"/></linearGradient><linearGradient x1="298" y1="742.5" x2="2343" y2="742.5" gradientUnits="userSpaceOnUse" spreadMethod="reflect" id="fill15"><stop offset="0" stop-color="#FF00FF"/><stop offset="0.5" stop-color="#7F7FFF"/><stop offset="1" stop-color="#00FFFF"/></linearGradient><linearGradient x1="298" y1="742.5" x2="2343" y2="742.5" gradientUnits="userSpaceOnUse" spreadMethod="reflect" id="fill16"><stop offset="0" stop-color="#FF00FF"/><stop offset="0.5" stop-color="#7F7FFF"/><stop offset="1" stop-color="#00FFFF"/></linearGradient><linearGradient x1="298" y1="742.5" x2="2343" y2="742.5" gradientUnits="userSpaceOnUse" spreadMethod="reflect" id="fill17"><stop offset="0" stop-color="#FF00FF"/><stop offset="0.5" stop-color="#7F7FFF"/><stop offset="1" stop-color="#00FFFF"/></linearGradient></defs><g clip-path="url(#clip0)" transform="matrix(1 0 0 1 0 -495)"><path d="M792 743C792 724.774 806.775 710 825 710L825 710C843.225 710 858 724.774 858 743L858 743C858 761.225 843.225 776 825 776L825 776C806.775 776 792 761.225 792 743Z" fill="#FFFFFF" fill-rule="evenodd"/><path d="M990 743C990 724.774 1004.77 710 1023 710L1023 710C1041.23 710 1056 724.774 1056 743L1056 743C1056 761.225 1041.23 776 1023 776L1023 776C1004.77 776 990 761.225 990 743Z" fill="#FFFFFF" fill-rule="evenodd"/><path d="M0 743C-4.20134e-15 724.774 14.7746 710 33 710L33 710C51.2254 710 66 724.774 66 743L66 743C66 761.225 51.2254 776 33 776L33 776C14.7746 776 0 761.225 0 743Z" fill="#FFFFFF" fill-rule="evenodd"/><path d="M99 743C99 724.774 113.775 710 132 710L132 710C150.225 710 165 724.774 165 743L165 743C165 761.225 150.225 776 132 776L132 776C113.775 776 99 761.225 99 743Z" fill="#FFFFFF" fill-rule="evenodd"/><path d="M198 743C198 724.774 212.775 710 231 710L231 710C249.225 710 264 724.774 264 743L264 743C264 761.225 249.225 776 231 776L231 776C212.775 776 198 761.225 198 743Z" fill="#FFFFFF" fill-rule="evenodd"/><path d="M1584 743C1584 724.774 1598.77 710 1617 710L1617 710C1635.23 710 1650 724.774 1650 743L1650 743C1650 761.225 1635.23 776 1617 776L1617 776C1598.77 776 1584 761.225 1584 743Z" fill="#FFFFFF" fill-rule="evenodd"/><path d="M1782 743C1782 724.774 1796.77 710 1815 710L1815 710C1833.23 710 1848 724.774 1848 743L1848 743C1848 761.225 1833.23 776 1815 776L1815 776C1796.77 776 1782 761.225 1782 743Z" fill="#FFFFFF" fill-rule="evenodd"/><path d="M2376 743C2376 724.774 2390.77 710 2409 710L2409 710C2427.23 710 2442 724.774 2442 743L2442 743C2442 761.225 2427.23 776 2409 776L2409 776C2390.77 776 2376 761.225 2376 743Z" fill="#FFFFFF" fill-rule="evenodd"/><path d="M2475 743C2475 724.774 2489.77 710 2508 710L2508 710C2526.23 710 2541 724.774 2541 743L2541 743C2541 761.225 2526.23 776 2508 776L2508 776C2489.77 776 2475 761.225 2475 743Z" fill="#FFFFFF" fill-rule="evenodd"/><path d="M2574 743C2574 724.774 2588.77 710 2607 710L2607 710C2625.23 710 2640 724.774 2640 743L2640 743C2640 761.225 2625.23 776 2607 776L2607 776C2588.77 776 2574 761.225 2574 743Z" fill="#FFFFFF" fill-rule="evenodd"/><path d="M298 528C298 509.775 312.775 495 331 495L331 495C349.225 495 364 509.775 364 528L364 957C364 975.225 349.225 990 331 990L331 990C312.775 990 298 975.225 298 957Z" fill="url(#fill1)" fill-rule="evenodd"/><path d="M396 693C396 674.775 410.775 660 429 660L429 660C447.225 660 462 674.775 462 693L462 792C462 810.225 447.225 825 429 825L429 825C410.775 825 396 810.225 396 792Z" fill="url(#fill2)" fill-rule="evenodd"/><path d="M495 611C495 592.774 509.775 578 528 578L528 578C546.225 578 561 592.774 561 611L561 875C561 893.225 546.225 908 528 908L528 908C509.775 908 495 893.225 495 875Z" fill="url(#fill3)" fill-rule="evenodd"/><path d="M594 693C594 674.775 608.775 660 627 660L627 660C645.225 660 660 674.775 660 693L660 792C660 810.225 645.225 825 627 825L627 825C608.775 825 594 810.225 594 792Z" fill="url(#fill4)" fill-rule="evenodd"/><path d="M694 528C694 509.775 708.775 495 727 495L727 495C745.225 495 760 509.775 760 528L760 957C760 975.225 745.225 990 727 990L727 990C708.775 990 694 975.225 694 957Z" fill="url(#fill5)" fill-rule="evenodd"/><path d="M891 611C891 592.774 905.775 578 924 578L924 578C942.225 578 957 592.774 957 611L957 875C957 893.225 942.225 908 924 908L924 908C905.775 908 891 893.225 891 875Z" fill="url(#fill6)" fill-rule="evenodd"/><path d="M1090 528C1090 509.775 1104.77 495 1123 495L1123 495C1141.23 495 1156 509.775 1156 528L1156 957C1156 975.225 1141.23 990 1123 990L1123 990C1104.77 990 1090 975.225 1090 957Z" fill="url(#fill7)" fill-rule="evenodd"/><path d="M1188 611C1188 592.774 1202.77 578 1221 578L1221 578C1239.23 578 1254 592.774 1254 611L1254 875C1254 893.225 1239.23 908 1221 908L1221 908C1202.77 908 1188 893.225 1188 875Z" fill="url(#fill8)" fill-rule="evenodd"/><path d="M1485 528C1485 509.775 1499.77 495 1518 495L1518 495C1536.23 495 1551 509.775 1551 528L1551 957C1551 975.225 1536.23 990 1518 990L1518 990C1499.77 990 1485 975.225 1485 957Z" fill="url(#fill9)" fill-rule="evenodd"/><path d="M1683 611C1683 592.774 1697.77 578 1716 578L1716 578C1734.23 578 1749 592.774 1749 611L1749 875C1749 893.225 1734.23 908 1716 908L1716 908C1697.77 908 1683 893.225 1683 875Z" fill="url(#fill10)" fill-rule="evenodd"/><path d="M1881 528C1881 509.775 1895.77 495 1914 495L1914 495C1932.23 495 1947 509.775 1947 528L1947 957C1947 975.225 1932.23 990 1914 990L1914 990C1895.77 990 1881 975.225 1881 957Z" fill="url(#fill11)" fill-rule="evenodd"/><path d="M1980 693C1980 674.775 1994.77 660 2013 660L2013 660C2031.23 660 2046 674.775 2046 693L2046 792C2046 810.225 2031.23 825 2013 825L2013 825C1994.77 825 1980 810.225 1980 792Z" fill="url(#fill12)" fill-rule="evenodd"/><path d="M2079 611C2079 592.774 2093.77 578 2112 578L2112 578C2130.23 578 2145 592.774 2145 611L2145 875C2145 893.225 2130.23 908 2112 908L2112 908C2093.77 908 2079 893.225 2079 875Z" fill="url(#fill13)" fill-rule="evenodd"/><path d="M2178 693C2178 674.775 2192.77 660 2211 660L2211 660C2229.23 660 2244 674.775 2244 693L2244 792C2244 810.225 2229.23 825 2211 825L2211 825C2192.77 825 2178 810.225 2178 792Z" fill="url(#fill14)" fill-rule="evenodd"/><path d="M2277 528C2277 509.775 2291.77 495 2310 495L2310 495C2328.23 495 2343 509.775 2343 528L2343 957C2343 975.225 2328.23 990 2310 990L2310 990C2291.77 990 2277 975.225 2277 957Z" fill="url(#fill15)" fill-rule="evenodd"/><path d="M1287 693C1287 674.775 1301.77 660 1320 660L1320 660C1338.23 660 1353 674.775 1353 693L1353 792C1353 810.225 1338.23 825 1320 825L1320 825C1301.77 825 1287 810.225 1287 792Z" fill="url(#fill16)" fill-rule="evenodd"/><path d="M1386 611C1386 592.774 1400.77 578 1419 578L1419 578C1437.23 578 1452 592.774 1452 611L1452 875C1452 893.225 1437.23 908 1419 908L1419 908C1400.77 908 1386 893.225 1386 875Z" fill="url(#fill17)" fill-rule="evenodd"/></g></svg>