<svg width="2640" height="495" xmlns="http://www.w3.org/2000/svg" xmlns:xlink="http://www.w3.org/1999/xlink" xml:space="preserve" overflow="hidden"><defs><clipPath id="clip0"><rect x="0" y="0" width="2640" height="495"/></clipPath><linearGradient x1="298" y1="247.5" x2="2343" y2="247.5" gradientUnits="userSpaceOnUse" spreadMethod="reflect" id="fill1"><stop offset="0" stop-color="#FF00FF"/><stop offset="0.5" stop-color="#7F7FFF"/><stop offset="1" stop-color="#00FFFF"/></linearGradient><linearGradient x1="298" y1="247.5" x2="2343" y2="247.5" gradientUnits="userSpaceOnUse" spreadMethod="reflect" id="fill2"><stop offset="0" stop-color="#FF00FF"/><stop offset="0.5" stop-color="#7F7FFF"/><stop offset="1" stop-color="#00FFFF"/></linearGradient><linearGradient x1="298" y1="247.5" x2="2343" y2="247.5" gradientUnits="userSpaceOnUse" spreadMethod="reflect" id="fill3"><stop offset="0" stop-color="#FF00FF"/><stop offset="0.5" stop-color="#7F7FFF"/><stop offset="1" stop-color="#00FFFF"/></linearGradient><linearGradient x1="298" y1="247.5" x2="2343" y2="247.5" gradientUnits="userSpaceOnUse" spreadMethod="reflect" id="fill4"><stop offset="0" stop-color="#FF00FF"/><stop offset="0.5" stop-color="#7F7FFF"/><stop offset="1" stop-color="#00FFFF"/></linearGradient><linearGradient x1="298" y1="247.5" x2="2343" y2="247.5" gradientUnits="userSpaceOnUse" spreadMethod="reflect" id="fill5"><stop offset="0" stop-color="#FF00FF"/><stop offset="0.5" stop-color="#7F7FFF"/><stop offset="1" stop-color="#00FFFF"/></linearGradient><linearGradient x1="298" y1="247.5" x2="2343" y2="247.5" gradientUnits="userSpaceOnUse" spreadMethod="reflect" id="fill6"><stop offset="0" stop-color="#FF00FF"/><stop offset="0.5" stop-color="#7F7FFF"/><stop offset="1" stop-color="#00FFFF"/></linearGradient><linearGradient x1="298" y1="247.5" x2="2343" y2="247.5" gradientUnits="userSpaceOnUse" spreadMethod="reflect" id="fill7"><stop offset="0" stop-color="#FF00FF"/><stop offset="0.5" stop-color="#7F7FFF"/><stop offset="1" stop-color="#00FFFF"/></linearGradient><linearGradient x1="298" y1="247.5" x2="2343" y2="247.5" gradientUnits="userSpaceOnUse" spreadMethod="reflect" id="fill8"><stop offset="0" stop-color="#FF00FF"/><stop offset="0.5" stop-color="#7F7FFF"/><stop offset="1" stop-color="#00FFFF"/></linearGradient><linearGradient x1="298" y1="247.5" x2="2343" y2="247.5" gradientUnits="userSpaceOnUse" spreadMethod="reflect" id="fill9"><stop offset="0" stop-color="#FF00FF"/><stop offset="0.5" stop-color="#7F7FFF"/><stop offset="1" stop-color="#00FFFF"/></linearGradient><linearGradient x1="298" y1="247.5" x2="2343" y2="247.5" gradientUnits="userSpaceOnUse" spreadMethod="reflect" id="fill10"><stop offset="0" stop-color="#FF00FF"/><stop offset="0.5" stop-color="#7F7FFF"/><stop offset="1" stop-color="#00FFFF"/></linearGradient><linearGradient x1="298" y1="247.5" x2="2343" y2="247.5" gradientUnits="userSpaceOnUse" spreadMethod="reflect" id="fill11"><stop offset="0" stop-color="#FF00FF"/><stop offset="0.5" stop-color="#7F7FFF"/><stop offset="1" stop-color="#00FFFF"/></linearGradient><linearGradient x1="298" y1="247.5" x2="2343" y2="247.5" gradientUnits="userSpaceOnUse" spreadMethod="reflect" id="fill12"><stop offset="0" stop-color="#FF00FF"/><stop offset="0.5" stop-color="#7F7FFF"/><stop offset="1" stop-color="#00FFFF"/></linearGradient><linearGradient x1="298" y1="247.5" x2="2343" y2="247.5" gradientUnits="userSpaceOnUse" spreadMethod="reflect" id="fill13"><stop offset="0" stop-color="#FF00FF"/><stop offset="0.5" stop-color="#7F7FFF"/><stop offset="1" stop-color="#00FFFF"/></linearGradient><linearGradient x1="298" y1="247.5" x2="2343" y2="247.5" gradientUnits="userSpaceOnUse" spreadMethod="reflect" id="fill14"><stop offset="0" stop-color="#FF00FF"/><stop offset="0.5" stop-color="#7F7FFF"/><stop offset="1" stop-color="#00FFFF"/></linearGradient><linearGradient x1="298" y1="247.5" x2="2343" y2="247.5" gradientUnits="userSpaceOnUse" spreadMethod="reflect" id="fill15"><stop offset="0" stop-color="#FF00FF"/><stop offset="0.5" stop-color="#7F7FFF"/><stop offset="1" stop-color="#00FFFF"/></linearGradient><linearGradient x1="298" y1="247.5" x2="2343" y2="247.5" gradientUnits="userSpaceOnUse" spreadMethod="reflect" id="fill16"><stop offset="0" stop-color="#FF00FF"/><stop offset="0.5" stop-color="#7F7FFF"/><stop offset="1" stop-color="#00FFFF"/></linearGradient><linearGradient x1="298" y1="247.5" x2="2343" y2="247.5" gradientUnits="userSpaceOnUse" spreadMethod="reflect" id="fill17"><stop offset="0" stop-color="#FF00FF"/><stop offset="0.5" stop-color="#7F7FFF"/><stop offset="1" stop-color="#00FFFF"/></linearGradient></defs><g clip-path="url(#clip0)"><path d="M792 248C792 229.774 806.775 215 825 215L825 215C843.225 215 858 229.774 858 248L858 248C858 266.225 843.225 281 825 281L825 281C806.775 281 792 266.225 792 248Z" fill-rule="evenodd"/><path d="M990 248C990 229.774 1004.77 215 1023 215L1023 215C1041.23 215 1056 229.774 1056 248L1056 248C1056 266.225 1041.23 281 1023 281L1023 281C1004.77 281 990 266.225 990 248Z" fill-rule="evenodd"/><path d="M0 248C-4.20134e-15 229.774 14.7746 215 33 215L33 215C51.2254 215 66 229.774 66 248L66 248C66 266.225 51.2254 281 33 281L33 281C14.7746 281 0 266.225 0 248Z" fill-rule="evenodd"/><path d="M99 248C99 229.774 113.775 215 132 215L132 215C150.225 215 165 229.774 165 248L165 248C165 266.225 150.225 281 132 281L132 281C113.775 281 99 266.225 99 248Z" fill-rule="evenodd"/><path d="M198 248C198 229.774 212.775 215 231 215L231 215C249.225 215 264 229.774 264 248L264 248C264 266.225 249.225 281 231 281L231 281C212.775 281 198 266.225 198 248Z" fill-rule="evenodd"/><path d="M1584 248C1584 229.774 1598.77 215 1617 215L1617 215C1635.23 215 1650 229.774 1650 248L1650 248C1650 266.225 1635.23 281 1617 281L1617 281C1598.77 281 1584 266.225 1584 248Z" fill-rule="evenodd"/><path d="M1782 248C1782 229.774 1796.77 215 1815 215L1815 215C1833.23 215 1848 229.774 1848 248L1848 248C1848 266.225 1833.23 281 1815 281L1815 281C1796.77 281 1782 266.225 1782 248Z" fill-rule="evenodd"/><path d="M2376 248C2376 229.774 2390.77 215 2409 215L2409 215C2427.23 215 2442 229.774 2442 248L2442 248C2442 266.225 2427.23 281 2409 281L2409 281C2390.77 281 2376 266.225 2376 248Z" fill-rule="evenodd"/><path d="M2475 248C2475 229.774 2489.77 215 2508 215L2508 215C2526.23 215 2541 229.774 2541 248L2541 248C2541 266.225 2526.23 281 2508 281L2508 281C2489.77 281 2475 266.225 2475 248Z" fill-rule="evenodd"/><path d="M2574 248C2574 229.774 2588.77 215 2607 215L2607 215C2625.23 215 2640 229.774 2640 248L2640 248C2640 266.225 2625.23 281 2607 281L2607 281C2588.77 281 2574 266.225 2574 248Z" fill-rule="evenodd"/><path d="M298 33C298 14.7746 312.775-3.93876e-15 331-7.87751e-15L331 0C349.225-7.87751e-15 364 14.7746 364 33L364 462C364 480.225 349.225 495 331 495L331 495C312.775 495 298 480.225 298 462Z" fill="url(#fill1)" fill-rule="evenodd"/><path d="M396 198C396 179.775 410.775 165 429 165L429 165C447.225 165 462 179.775 462 198L462 297C462 315.225 447.225 330 429 330L429 330C410.775 330 396 315.225 396 297Z" fill="url(#fill2)" fill-rule="evenodd"/><path d="M495 116C495 97.7744 509.775 82.9998 528 82.9998L528 82.9998C546.225 82.9998 561 97.7744 561 116L561 380C561 398.225 546.225 413 528 413L528 413C509.775 413 495 398.225 495 380Z" fill="url(#fill3)" fill-rule="evenodd"/><path d="M594 198C594 179.775 608.775 165 627 165L627 165C645.225 165 660 179.775 660 198L660 297C660 315.225 645.225 330 627 330L627 330C608.775 330 594 315.225 594 297Z" fill="url(#fill4)" fill-rule="evenodd"/><path d="M694 33C694 14.7746 708.775-3.93876e-15 727-7.87751e-15L727 0C745.225-7.87751e-15 760 14.7746 760 33L760 462C760 480.225 745.225 495 727 495L727 495C708.775 495 694 480.225 694 462Z" fill="url(#fill5)" fill-rule="evenodd"/><path d="M891 116C891 97.7744 905.775 82.9998 924 82.9998L924 82.9998C942.225 82.9998 957 97.7744 957 116L957 380C957 398.225 942.225 413 924 413L924 413C905.775 413 891 398.225 891 380Z" fill="url(#fill6)" fill-rule="evenodd"/><path d="M1090 33C1090 14.7746 1104.77-3.93876e-15 1123-7.87751e-15L1123 0C1141.23-7.87751e-15 1156 14.7746 1156 33L1156 462C1156 480.225 1141.23 495 1123 495L1123 495C1104.77 495 1090 480.225 1090 462Z" fill="url(#fill7)" fill-rule="evenodd"/><path d="M1188 116C1188 97.7744 1202.77 82.9998 1221 82.9998L1221 82.9998C1239.23 82.9998 1254 97.7744 1254 116L1254 380C1254 398.225 1239.23 413 1221 413L1221 413C1202.77 413 1188 398.225 1188 380Z" fill="url(#fill8)" fill-rule="evenodd"/><path d="M1485 33C1485 14.7746 1499.77-3.93876e-15 1518-7.87751e-15L1518 0C1536.23-7.87751e-15 1551 14.7746 1551 33L1551 462C1551 480.225 1536.23 495 1518 495L1518 495C1499.77 495 1485 480.225 1485 462Z" fill="url(#fill9)" fill-rule="evenodd"/><path d="M1683 116C1683 97.7744 1697.77 82.9998 1716 82.9998L1716 82.9998C1734.23 82.9998 1749 97.7744 1749 116L1749 380C1749 398.225 1734.23 413 1716 413L1716 413C1697.77 413 1683 398.225 1683 380Z" fill="url(#fill10)" fill-rule="evenodd"/><path d="M1881 33C1881 14.7746 1895.77-3.93876e-15 1914-7.87751e-15L1914 0C1932.23-7.87751e-15 1947 14.7746 1947 33L1947 462C1947 480.225 1932.23 495 1914 495L1914 495C1895.77 495 1881 480.225 1881 462Z" fill="url(#fill11)" fill-rule="evenodd"/><path d="M1980 198C1980 179.775 1994.77 165 2013 165L2013 165C2031.23 165 2046 179.775 2046 198L2046 297C2046 315.225 2031.23 330 2013 330L2013 330C1994.77 330 1980 315.225 1980 297Z" fill="url(#fill12)" fill-rule="evenodd"/><path d="M2079 116C2079 97.7744 2093.77 82.9998 2112 82.9998L2112 82.9998C2130.23 82.9998 2145 97.7744 2145 116L2145 380C2145 398.225 2130.23 413 2112 413L2112 413C2093.77 413 2079 398.225 2079 380Z" fill="url(#fill13)" fill-rule="evenodd"/><path d="M2178 198C2178 179.775 2192.77 165 2211 165L2211 165C2229.23 165 2244 179.775 2244 198L2244 297C2244 315.225 2229.23 330 2211 330L2211 330C2192.77 330 2178 315.225 2178 297Z" fill="url(#fill14)" fill-rule="evenodd"/><path d="M2277 33C2277 14.7746 2291.77-3.93876e-15 2310-7.87751e-15L2310 0C2328.23-7.87751e-15 2343 14.7746 2343 33L2343 462C2343 480.225 2328.23 495 2310 495L2310 495C2291.77 495 2277 480.225 2277 462Z" fill="url(#fill15)" fill-rule="evenodd"/><path d="M1287 198C1287 179.775 1301.77 165 1320 165L1320 165C1338.23 165 1353 179.775 1353 198L1353 297C1353 315.225 1338.23 330 1320 330L1320 330C1301.77 330 1287 315.225 1287 297Z" fill="url(#fill16)" fill-rule="evenodd"/><path d="M1386 116C1386 97.7744 1400.77 82.9998 1419 82.9998L1419 82.9998C1437.23 82.9998 1452 97.7744 1452 116L1452 380C1452 398.225 1437.23 413 1419 413L1419 413C1400.77 413 1386 398.225 1386 380Z" fill="url(#fill17)" fill-rule="evenodd"/></g></svg>