<svg xmlns="http://www.w3.org/2000/svg" width="800" height="800" viewBox="0 0 16 16">
  <path fill-rule="evenodd" d="M9.33095244 9.33095244c1.20606076-1.20606076 1.20606076-3.16147161 0-4.36753237-1.20606076-1.20606076-3.16147161-1.20606076-4.36753237 0-1.20606076 1.20606076-1.20606076 3.16147161 0 4.36753237 1.20606076 1.20606076 3.16147161 1.20606076 4.36753237 0Zm.65511667 2.11096076c-1.99851778 1.3240684-4.71768033 1.1056962-6.47849316-.6551166-2.01010127-2.0101013-2.01010127-5.26911938 0-7.27922065s5.26911935-2.01010127 7.27922065 0c1.7608128 1.76081283 1.979185 4.47997538.6551166 6.47849316l2.2565716 2.25657159c.4020203.4020202.4020203 1.0538239 0 1.4558441-.4020202.4020203-1.0538239.4020203-1.4558441 0l-2.25657159-2.2565716Z"/>
</svg>