<svg xmlns="http://www.w3.org/2000/svg" xml:space="preserve" overflow="hidden" viewBox="0 0 2640 495">
  <defs>
    <linearGradient id="b" x1="298" x2="2343" y1="742.5" y2="742.5" gradientUnits="userSpaceOnUse" spreadMethod="reflect">
      <stop offset="0" stop-color="#f0f"/>
      <stop offset=".5" stop-color="#7F7FFF"/>
      <stop offset="1" stop-color="#0ff"/>
    </linearGradient>
    <clipPath id="a">
      <path d="M0 495h2640v495H0z"/>
    </clipPath>
  </defs>
  <g fill-rule="evenodd" clip-path="url(#a)" transform="translate(0 -495)">
    <path fill="#fff" d="M792 743c0-18.226 14.775-33 33-33s33 14.774 33 33c0 18.225-14.775 33-33 33s-33-14.775-33-33zm198 0c0-18.226 14.77-33 33-33s33 14.774 33 33c0 18.225-14.77 33-33 33s-33-14.775-33-33zM0 743c0-18.226 14.775-33 33-33s33 14.774 33 33c0 18.225-14.775 33-33 33S0 761.225 0 743zm99 0c0-18.226 14.775-33 33-33s33 14.774 33 33c0 18.225-14.775 33-33 33s-33-14.775-33-33zm99 0c0-18.226 14.775-33 33-33s33 14.774 33 33c0 18.225-14.775 33-33 33s-33-14.775-33-33zm1386 0c0-18.226 14.77-33 33-33s33 14.774 33 33c0 18.225-14.77 33-33 33s-33-14.775-33-33zm198 0c0-18.226 14.77-33 33-33s33 14.774 33 33c0 18.225-14.77 33-33 33s-33-14.775-33-33zm594 0c0-18.226 14.77-33 33-33s33 14.774 33 33c0 18.225-14.77 33-33 33s-33-14.775-33-33zm99 0c0-18.226 14.77-33 33-33s33 14.774 33 33c0 18.225-14.77 33-33 33s-33-14.775-33-33zm99 0c0-18.226 14.77-33 33-33s33 14.774 33 33c0 18.225-14.77 33-33 33s-33-14.775-33-33z"/>
    <path fill="url(#b)" d="M298 528c0-18.225 14.775-33 33-33s33 14.775 33 33v429c0 18.225-14.775 33-33 33s-33-14.775-33-33zm98 165c0-18.225 14.775-33 33-33s33 14.775 33 33v99c0 18.225-14.775 33-33 33s-33-14.775-33-33zm99-82c0-18.226 14.775-33 33-33s33 14.774 33 33v264c0 18.225-14.775 33-33 33s-33-14.775-33-33zm99 82c0-18.225 14.775-33 33-33s33 14.775 33 33v99c0 18.225-14.775 33-33 33s-33-14.775-33-33zm100-165c0-18.225 14.775-33 33-33s33 14.775 33 33v429c0 18.225-14.775 33-33 33s-33-14.775-33-33zm197 83c0-18.226 14.775-33 33-33s33 14.774 33 33v264c0 18.225-14.775 33-33 33s-33-14.775-33-33zm199-83c0-18.225 14.77-33 33-33s33 14.775 33 33v429c0 18.225-14.77 33-33 33s-33-14.775-33-33zm98 83c0-18.226 14.77-33 33-33s33 14.774 33 33v264c0 18.225-14.77 33-33 33s-33-14.775-33-33zm297-83c0-18.225 14.77-33 33-33s33 14.775 33 33v429c0 18.225-14.77 33-33 33s-33-14.775-33-33zm198 83c0-18.226 14.77-33 33-33s33 14.774 33 33v264c0 18.225-14.77 33-33 33s-33-14.775-33-33zm198-83c0-18.225 14.77-33 33-33s33 14.775 33 33v429c0 18.225-14.77 33-33 33s-33-14.775-33-33zm99 165c0-18.225 14.77-33 33-33s33 14.775 33 33v99c0 18.225-14.77 33-33 33s-33-14.775-33-33zm99-82c0-18.226 14.77-33 33-33s33 14.774 33 33v264c0 18.225-14.77 33-33 33s-33-14.775-33-33zm99 82c0-18.225 14.77-33 33-33s33 14.775 33 33v99c0 18.225-14.77 33-33 33s-33-14.775-33-33zm99-165c0-18.225 14.77-33 33-33s33 14.775 33 33v429c0 18.225-14.77 33-33 33s-33-14.775-33-33zm-990 165c0-18.225 14.77-33 33-33s33 14.775 33 33v99c0 18.225-14.77 33-33 33s-33-14.775-33-33zm99-82c0-18.226 14.77-33 33-33s33 14.774 33 33v264c0 18.225-14.77 33-33 33s-33-14.775-33-33z"/>
  </g>
</svg>