<svg xmlns="http://www.w3.org/2000/svg" width="800" height="800" fill="none" viewBox="0 0 24 24">
  <path fill="#000" fill-rule="evenodd" d="M21 11.0975v4.9934c0 3.0966 0 4.6449-.7341 5.3214-.3501.3227-.792.5254-1.2628.5792-.9871.113-2.1398-.9066-4.4453-2.9457-1.019-.9013-1.5286-1.352-2.1181-1.4707-.2903-.0585-.5891-.0585-.8794 0-.5895.1187-1.0991.5694-2.11814 1.4707-2.30543 2.0391-3.45814 3.0587-4.44524 2.9457-.47077-.0538-.91271-.2565-1.26281-.5792C3 20.7358 3 19.1875 3 16.0909v-4.9934c0-4.28859 0-6.4329 1.31802-7.7652S7.75736 2 12 2c4.2426 0 6.364 0 7.682 1.3323C21 4.6646 21 6.80891 21 11.0975ZM8.25 6c0-.41421.33579-.75.75-.75h6c.4142 0 .75.33579.75.75s-.3358.75-.75.75H9c-.41421 0-.75-.33579-.75-.75Z" clip-rule="evenodd"/>
</svg>