<svg xmlns="http://www.w3.org/2000/svg" width="800" height="800" viewBox="0 0 24 24">
  <g fill="none">
    <path d="M24 0v24H0V0h24ZM12.5934901 23.257841l-.0115499.0016721-.0710625.0355308-.0189986.003703-.0151639-.003703-.0710604-.0355308c-.0098319-.0031469-.0186055-.0004896-.0235127.0053943l-.0041098.0109236-.0170913.4272787.0049537.0203897.0110101.0122145.1035729.0739792.0148714.0039203.0117661-.0039203.103575-.0739792.0126036-.0160406.0033589-.0165636-.0170917-.4272787c-.0019886-.0101297-.0085498-.0165317-.0160709-.01799Zm.2649005-.1125548-.0138421.002021-.1847042.0923525-.0099621.0102455-.0026879.0112062.0179.4295275.0048406.0127789.0084511.0070753.2009542.0927458c.0120883.003661.0228931-.0002514.0284884-.0080125l.0039949-.0140625-.0341458-.6146308c-.0023895-.0119434-.0102675-.0195315-.0192871-.0212469Zm-.7153433.002021c-.0098295-.0049147-.020871-.0020466-.0274108.0052882l-.0057192.0139377-.0341459.6146308c-.0006391.0115.0070385.0206963.0168767.0234037l.0156079-.0013287.2009546-.0927458.0094391-.0080584.0038546-.0117958.0178967-.4295275-.003156-.0125938-.0094919-.0088579-.1847058-.0923525Z"/>
    <path fill="#000" d="M10.9198 2.8677c.4822-.82783 1.6782-.82783 2.1603 0l2.795 4.79873 5.4276 1.17532c.9363.20275 1.3059 1.34015.6676 2.05455l-3.7002 4.1411.5594 5.5251c.0965.9531-.871 1.6561-1.7477 1.2698L12 19.5929l-5.08184 2.2394c-.87667.3863-1.84421-.3167-1.7477-1.2698l.55941-5.5251-3.70015-4.1411c-.63832-.7144-.26875-1.8518.66756-2.05455l5.42756-1.17532L10.9198 2.8677Z"/>
  </g>
</svg>