<svg xmlns="http://www.w3.org/2000/svg" width="800" height="800" fill="none" viewBox="0 0 24 24">
  <path fill="#000" d="M8.50989 2.00001H15.49c.2325-.00006.4107-.0001.5665.01514 1.1078.10837 2.0146.77443 2.3991 1.67163H5.54428c.38451-.8972 1.29127-1.56326 2.39909-1.67163.1558-.01524.33404-.0152.56652-.01514ZM6.31052 4.72312c-1.39063 0-2.53089.83975-2.91142 1.95379-.00793.02322-.01554.04657-.02281.07002.39815-.12057.81252-.19934 1.23198-.25311 1.08038-.13851 2.44572-.13844 4.03175-.13835h6.89208c1.586-.00009 2.9514-.00016 4.0318.13835.4194.05377.8338.13254 1.2319.25311-.0072-.02345-.0148-.0468-.0228-.07002-.3805-1.11404-1.5208-1.95379-2.9114-1.95379H6.31052Z"/>
  <path fill="#000" fill-rule="evenodd" d="M8.67239 7.54204h6.65521c3.3748 0 5.0622 0 6.0101.98683.9478.98683.7248 2.51143.2788 5.56073l-.423 2.8915c-.3498 2.3913-.5246 3.5869-1.4218 4.3029-.8972.716-2.2205.716-4.8671.716H9.09536c-2.64655 0-3.96983 0-4.86702-.716-.89719-.716-1.07208-1.9116-1.42186-4.3029l-.42297-2.8915c-.44603-3.0493-.66904-4.5739.27881-5.56073.94785-.98683 2.63526-.98683 6.01007-.98683ZM8 18.0001c0-.4142.3731-.75.83333-.75h6.33337c.4602 0 .8333.3358.8333.75 0 .4143-.3731.7501-.8333.7501H8.83333C8.3731 18.7502 8 18.4144 8 18.0001Z" clip-rule="evenodd"/>
</svg>