<svg xmlns="http://www.w3.org/2000/svg" width="800" height="800" viewBox="0 0 24 24">
  <g fill="none">
    <path d="M24 0v24H0V0h24ZM12.5934901 23.257841l-.0115499.0016721-.0710625.0355308-.0189986.003703-.0151639-.003703-.0710604-.0355308c-.0098319-.0031469-.0186055-.0004896-.0235127.0053943l-.0041098.0109236-.0170913.4272787.0049537.0203897.0110101.0122145.1035729.0739792.0148714.0039203.0117661-.0039203.103575-.0739792.0126036-.0160406.0033589-.0165636-.0170917-.4272787c-.0019886-.0101297-.0085498-.0165317-.0160709-.01799Zm.2649005-.1125548-.0138421.002021-.1847042.0923525-.0099621.0102455-.0026879.0112062.0179.4295275.0048406.0127789.0084511.0070753.2009542.0927458c.0120883.003661.0228931-.0002514.0284884-.0080125l.0039949-.0140625-.0341458-.6146308c-.0023895-.0119434-.0102675-.0195315-.0192871-.0212469Zm-.7153433.002021c-.0098295-.0049147-.020871-.0020466-.0274108.0052882l-.0057192.0139377-.0341459.6146308c-.0006391.0115.0070385.0206963.0168767.0234037l.0156079-.0013287.2009546-.0927458.0094391-.0080584.0038546-.0117958.0178967-.4295275-.003156-.0125938-.0094919-.0088579-.1847058-.0923525Z"/>
    <path fill="#000" d="M1.49775579 12.0822c-.00918391-1.2670714 1.34690994-1.986742 2.37893429-1.4063736L3.98994 10.7457 6.66778 12.55c1.42407243.9594486.53799883 3.1455059-1.09883291 2.9146139L5.43084 15.4397l-.10848-.0238c.9333 1.8229 2.60477 3.2576 4.73634 3.8288 3.3508.8978 6.7835-.622 8.4384-3.4936.4136-.7178 1.3308-.9643 2.0486-.5507.7177.4137.9643 1.3308.5506 2.0486-2.3161 4.0192-7.1181 6.1517-11.8141 4.8935-4.2047-1.1267-7.12302-4.6507-7.68549-8.7019-.06207-.4471-.09551-.9007-.09895421-1.3584ZM2.90375 6.75109C5.22 2.73217 10.0218.599762 14.7177 1.85801c4.2047 1.12665 7.123 4.65063 7.6855 8.70189.0621.4471.0955.9007.0988958 1.3583.0092595 1.2670714-1.3468688 1.986742-2.3788509 1.4064632L20.01 13.2548l-2.678-1.8044c-1.4240432-.9594486-.5381014-3.14540178 1.0986956-2.9146515L18.5688 8.56065l.1087.02384c-.9333-1.8229-2.6048-3.25757-4.7363-3.8287-3.3507-.89782-6.78332.6219-8.43824 3.49332-.41367.71776-1.33087.96427-2.04862.5506-.71775-.41367-.96426-1.33087-.55059-2.04862Z"/>
  </g>
</svg>