<svg xmlns="http://www.w3.org/2000/svg" width="800" height="800" fill="none" viewBox="0 0 24 24">
  <path fill="#000" fill-rule="evenodd" d="M14.2788 2.15224C13.9085 2 13.439 2 12.5 2s-1.4085 0-1.7788.15224c-.4938.20299-.88611.59234-1.09064 1.08239-.09337.22371-.12991.48387-.14421.86336-.02101.55769-.30919 1.0739-.79618 1.35294-.48699.27903-1.08153.26861-1.57868.00783-.33831-.17746-.5836-.27614-.8255-.30774-.5299-.06924-1.06581.07327-1.48983.39618-.31802.24218-.55277.6457-1.02226 1.45273-.46949.80704-.70423 1.21055-.75655 1.60498-.06977.52589.07383 1.05775.3992 1.47859.14851.1921.35722.3535.68115.5555.47621.297.78262.8029.78259 1.361-.00003.5581-.30643 1.0639-.78259 1.3608-.32398.2021-.53273.3636-.68125.5557-.32537.4208-.46896.9526-.3992 1.4785.05232.3944.28707.798.75655 1.605.46949.807.70424 1.2106 1.02226 1.4527.42402.3229.95993.4654 1.48983.3962.24189-.0316.48716-.1303.82544-.3077.49719-.2608 1.09177-.2712 1.57879.0078.48702.2791.77521.7953.79623 1.3531.0143.3794.05084.6396.14421.8633.20453.49.59684.8794 1.09064 1.0824C11.0915 22 11.561 22 12.5 22s1.4085 0 1.7788-.1522c.4938-.203.8861-.5924 1.0906-1.0824.0934-.2237.13-.4839.1443-.8634.021-.5577.3091-1.0739.7961-1.353.487-.2791 1.0816-.2686 1.5788-.0078.3383.1774.5835.276.8254.3076.5299.0693 1.0658-.0732 1.4898-.3961.3181-.2422.5528-.6457 1.0223-1.4528.4695-.807.7042-1.2105.7566-1.6049.0697-.5259-.0739-1.0578-.3992-1.4786-.1486-.1921-.3573-.3536-.6813-.5556-.4761-.2969-.7825-.8028-.7825-1.3609s.3064-1.0638.7825-1.3607c.3241-.2021.5328-.3635.6814-.5557.3253-.42077.4689-.95263.3992-1.47853-.0524-.39442-.2871-.79794-.7566-1.60497-.4695-.80703-.7042-1.21055-1.0223-1.45273-.424-.32291-.9599-.46542-1.4898-.39618-.2419.0316-.4872.13027-.8254.30771-.4972.26079-1.0918.27122-1.5788-.00784-.487-.27905-.7752-.7953-.7963-1.35302-.0143-.37946-.0508-.63961-.1442-.86331-.2045-.49005-.5968-.8794-1.0906-1.08239ZM12.5 15c1.6695 0 3.0228-1.3431 3.0228-3S14.1695 9 12.5 9c-1.6695 0-3.02284 1.3431-3.02284 3S10.8305 15 12.5 15Z" clip-rule="evenodd"/>
</svg>